<?xml version="1.0" standalone="no"?><svg xmlns="http://www.w3.org/2000/svg" viewBox="0 0 1440 320"><path fill="#1D809F" fill-opacity="1" d="M0,96L10.4,85.3C20.9,75,42,53,63,69.3C83.5,85,104,139,125,160C146.1,181,167,171,188,160C208.7,149,230,139,250,128C271.3,117,292,107,313,133.3C333.9,160,355,224,376,213.3C396.5,203,417,117,438,112C459.1,107,480,181,501,197.3C521.7,213,543,171,563,133.3C584.3,96,605,64,626,69.3C647,75,668,117,689,165.3C709.6,213,730,267,751,282.7C772.2,299,793,277,814,224C834.8,171,856,85,877,96C897.4,107,918,213,939,261.3C960,309,981,299,1002,266.7C1022.6,235,1043,181,1064,154.7C1085.2,128,1106,128,1127,149.3C1147.8,171,1169,213,1190,229.3C1210.4,245,1231,235,1252,208C1273,181,1294,139,1315,149.3C1335.7,160,1357,224,1377,245.3C1398.3,267,1419,245,1430,234.7L1440,224L1440,320L1429.6,320C1419.1,320,1398,320,1377,320C1356.5,320,1336,320,1315,320C1293.9,320,1273,320,1252,320C1231.3,320,1210,320,1190,320C1168.7,320,1148,320,1127,320C1106.1,320,1085,320,1064,320C1043.5,320,1023,320,1002,320C980.9,320,960,320,939,320C918.3,320,897,320,877,320C855.7,320,835,320,814,320C793,320,772,320,751,320C730.4,320,710,320,689,320C667.8,320,647,320,626,320C605.2,320,584,320,563,320C542.6,320,522,320,501,320C480,320,459,320,438,320C417.4,320,397,320,376,320C354.8,320,334,320,313,320C292.2,320,271,320,250,320C229.6,320,209,320,188,320C167,320,146,320,125,320C104.3,320,83,320,63,320C41.7,320,21,320,10,320L0,320Z"></path></svg>