<?xml version="1.0" standalone="no"?><svg xmlns="http://www.w3.org/2000/svg" viewBox="0 0 1440 320"><path fill="#5000ca" fill-opacity="1" d="M0,64L15,80C30,96,60,128,90,133.3C120,139,150,117,180,106.7C210,96,240,96,270,106.7C300,117,330,139,360,154.7C390,171,420,181,450,181.3C480,181,510,171,540,192C570,213,600,267,630,277.3C660,288,690,256,720,213.3C750,171,780,117,810,101.3C840,85,870,107,900,112C930,117,960,107,990,96C1020,85,1050,75,1080,64C1110,53,1140,43,1170,32C1200,21,1230,11,1260,53.3C1290,96,1320,192,1350,229.3C1380,267,1410,245,1425,234.7L1440,224L1440,320L1425,320C1410,320,1380,320,1350,320C1320,320,1290,320,1260,320C1230,320,1200,320,1170,320C1140,320,1110,320,1080,320C1050,320,1020,320,990,320C960,320,930,320,900,320C870,320,840,320,810,320C780,320,750,320,720,320C690,320,660,320,630,320C600,320,570,320,540,320C510,320,480,320,450,320C420,320,390,320,360,320C330,320,300,320,270,320C240,320,210,320,180,320C150,320,120,320,90,320C60,320,30,320,15,320L0,320Z"></path></svg>